<svg xmlns="http://www.w3.org/2000/svg" xmlns:xlink="http://www.w3.org/1999/xlink" width="500" zoomAndPan="magnify" viewBox="0 0 375 374.999991" height="500" preserveAspectRatio="xMidYMid meet" version="1.0"><defs><g/></defs><rect x="-37.5" width="450" fill="#ffffff" y="-37.499999" height="449.999989" fill-opacity="1"/><rect x="-37.5" width="450" fill="#ffffff" y="-37.499999" height="449.999989" fill-opacity="1"/><rect x="-37.5" width="450" fill="#ffffff" y="-37.499999" height="449.999989" fill-opacity="1"/><rect x="-37.5" width="450" fill="#ffffff" y="-37.499999" height="449.999989" fill-opacity="1"/><g fill="#000000" fill-opacity="1"><g transform="translate(73.387689, 171.478065)"><g><path d="M 114.328125 -127.476562 C 114.242188 -127.691406 114.113281 -127.902344 113.945312 -128.117188 C 113.816406 -128.332031 113.601562 -128.417969 113.347656 -128.417969 C 112.535156 -128.246094 111.46875 -127.5625 110.1875 -126.367188 C 108.90625 -125.128906 107.582031 -123.761719 106.300781 -122.269531 C 104.980469 -120.730469 103.867188 -119.453125 103.015625 -118.382812 C 102.671875 -117.957031 102.375 -117.617188 102.160156 -117.359375 C 96.910156 -110.957031 91.273438 -102.246094 85.253906 -91.230469 C 79.234375 -80.261719 73.601562 -69.203125 68.347656 -58.1875 C 63.097656 -47.132812 59 -38.335938 56.054688 -31.761719 C 54.390625 -28.046875 53.320312 -25.742188 52.851562 -24.804688 C 51.871094 -22.796875 50.675781 -20.917969 49.265625 -19.039062 C 48.453125 -18.101562 47.558594 -17.632812 46.621094 -17.632812 C 46.191406 -17.71875 45.722656 -18.015625 45.210938 -18.570312 C 44.699219 -19.125 44.3125 -19.679688 44.015625 -20.234375 C 42.734375 -22.667969 41.796875 -25.015625 41.199219 -27.28125 C 39.53125 -33.128906 38.210938 -38.765625 37.140625 -44.269531 C 36.203125 -48.839844 35.261719 -53.363281 34.367188 -57.890625 C 34.324219 -58.101562 34.324219 -58.273438 34.28125 -58.359375 C 34.28125 -58.488281 34.238281 -58.574219 34.238281 -58.660156 C 34.238281 -58.699219 34.238281 -58.742188 34.238281 -58.785156 C 34.238281 -58.828125 34.238281 -58.828125 34.238281 -58.871094 C 34.238281 -58.871094 34.238281 -58.914062 34.238281 -58.957031 C 34.238281 -58.957031 34.195312 -59 34.195312 -59.085938 C 34.195312 -59.128906 34.195312 -59.214844 34.152344 -59.339844 C 34.152344 -59.46875 34.109375 -59.640625 34.066406 -59.855469 C 33.984375 -60.324219 33.855469 -60.75 33.597656 -61.261719 C 33.34375 -61.730469 32.828125 -62.03125 32.0625 -62.160156 C 31.550781 -62.203125 31.121094 -62.03125 30.738281 -61.691406 C 30.183594 -61.175781 29.882812 -60.410156 29.925781 -59.339844 C 29.925781 -57.421875 29.839844 -55.796875 29.585938 -54.515625 C 29.328125 -53.195312 28.988281 -51.785156 28.5625 -50.289062 C 28.433594 -49.820312 28.304688 -49.308594 28.132812 -48.753906 C 26.980469 -44.441406 25.785156 -40.085938 24.632812 -35.734375 C 23.222656 -30.3125 21.773438 -24.976562 20.320312 -19.679688 L 17.589844 -9.945312 C 17.589844 -10.160156 17.589844 -10.585938 17.546875 -11.140625 C 17.546875 -11.738281 17.503906 -12.339844 17.503906 -12.976562 C 17.460938 -13.660156 17.460938 -14.214844 17.460938 -14.6875 C 17.417969 -15.027344 17.417969 -15.242188 17.417969 -15.328125 C 16.777344 -30.738281 16.523438 -47.816406 16.605469 -66.597656 C 16.648438 -68.863281 16.734375 -71.082031 16.863281 -73.300781 C 16.90625 -74.625 16.992188 -75.949219 17.035156 -77.316406 C 17.035156 -77.398438 17.035156 -77.484375 17.035156 -77.613281 C 17.078125 -77.953125 17.078125 -78.382812 17.035156 -78.765625 C 16.992188 -79.191406 16.820312 -79.621094 16.523438 -80.046875 C 16.394531 -80.175781 16.265625 -80.347656 16.050781 -80.472656 C 15.839844 -80.601562 15.625 -80.6875 15.367188 -80.730469 C 15.15625 -80.730469 14.898438 -80.6875 14.644531 -80.558594 C 14.386719 -80.472656 14.171875 -80.304688 14.046875 -80.089844 C 13.703125 -79.578125 13.492188 -79.109375 13.40625 -78.679688 C 13.019531 -76.886719 12.851562 -75.09375 12.894531 -73.34375 L 12.894531 -72.660156 C 12.550781 -55.710938 12.765625 -36.84375 13.574219 -16.09375 C 13.660156 -14.132812 13.746094 -12.210938 13.917969 -10.289062 C 13.960938 -9.605469 14.003906 -8.964844 14.046875 -8.28125 C 14.089844 -7.640625 14.171875 -7.042969 14.300781 -6.53125 C 14.769531 -4.910156 15.539062 -4.097656 16.691406 -4.097656 C 16.691406 -4.097656 16.691406 -4.097656 16.734375 -4.097656 C 17.84375 -4.097656 18.65625 -4.738281 19.125 -6.019531 C 19.511719 -6.957031 19.851562 -8.027344 20.191406 -9.136719 C 21.175781 -12.722656 22.199219 -16.308594 23.222656 -19.894531 C 26.171875 -30.269531 29.03125 -40.726562 31.71875 -51.359375 C 31.761719 -51.230469 31.804688 -51.101562 31.804688 -50.972656 C 32.0625 -49.863281 32.273438 -48.796875 32.488281 -47.6875 C 32.488281 -47.644531 32.53125 -47.558594 32.53125 -47.472656 C 33.898438 -40.257812 35.605469 -33.085938 37.613281 -25.914062 C 38.335938 -23.351562 39.148438 -21.21875 40.042969 -19.382812 C 40.898438 -17.675781 41.835938 -16.351562 42.863281 -15.453125 C 44.785156 -13.789062 46.789062 -13.574219 48.96875 -14.855469 C 50.164062 -15.625 51.230469 -16.648438 52.210938 -18.015625 C 53.707031 -20.109375 54.945312 -22.242188 55.882812 -24.292969 C 57.847656 -28.433594 59.8125 -32.789062 61.859375 -37.3125 L 63.054688 -40.085938 C 66.34375 -47.730469 69.84375 -55.414062 73.472656 -63.054688 C 82.179688 -81.15625 91.316406 -96.824219 100.921875 -109.972656 C 101.605469 -110.871094 102.246094 -111.808594 102.886719 -112.707031 C 104.425781 -114.96875 106.089844 -117.144531 107.796875 -119.28125 C 109.546875 -121.414062 111.511719 -123.335938 113.730469 -125 C 114.5 -125.640625 114.667969 -126.453125 114.328125 -127.476562 Z M 114.328125 -127.476562 "/></g></g></g><g fill="#000000" fill-opacity="1"><g transform="translate(148.393452, 171.478065)"><g><path d="M 7.128906 -15.328125 C 7.171875 -15.328125 7.257812 -15.328125 7.34375 -15.328125 C 7.386719 -15.328125 7.386719 -15.328125 7.429688 -15.328125 C 9.179688 -15.285156 10.800781 -15.625 12.378906 -16.308594 C 13.917969 -16.992188 15.328125 -17.84375 16.648438 -18.871094 C 17.972656 -19.894531 19.253906 -21.003906 20.449219 -22.15625 C 21.046875 -22.710938 21.601562 -23.308594 22.199219 -23.90625 C 22.582031 -24.335938 23.011719 -24.761719 23.394531 -25.1875 C 23.523438 -25.316406 23.652344 -25.488281 23.777344 -25.613281 L 23.90625 -25.785156 C 23.90625 -25.828125 23.90625 -25.871094 23.863281 -25.957031 C 23.863281 -25.957031 23.863281 -26 23.863281 -26.042969 C 23.820312 -26.128906 23.738281 -26.171875 23.652344 -26.210938 C 23.523438 -26.296875 23.351562 -26.296875 23.222656 -26.253906 C 22.925781 -26.210938 22.753906 -26 22.625 -25.699219 C 22.625 -25.699219 22.582031 -25.65625 22.542969 -25.65625 C 21.515625 -24.761719 20.492188 -23.90625 19.46875 -23.097656 C 18.359375 -22.242188 17.246094 -21.472656 16.09375 -20.707031 C 14.941406 -19.9375 13.746094 -19.296875 12.464844 -18.828125 C 11.183594 -18.359375 9.863281 -18.058594 8.496094 -17.929688 C 7.683594 -17.929688 6.875 -18.015625 6.105469 -18.1875 C 5.679688 -18.273438 5.335938 -18.398438 4.996094 -18.570312 C 4.609375 -18.785156 4.3125 -18.996094 4.054688 -19.253906 C 3.5 -19.851562 3.117188 -20.492188 2.902344 -21.304688 C 2.648438 -22.070312 2.605469 -22.839844 2.730469 -23.609375 C 2.816406 -23.992188 2.945312 -24.335938 3.117188 -24.675781 C 3.328125 -25.015625 3.585938 -25.316406 3.84375 -25.574219 C 4.441406 -26.128906 5.082031 -26.597656 5.804688 -26.980469 C 7.34375 -27.792969 8.625 -28.859375 9.734375 -30.183594 C 10.800781 -31.550781 11.570312 -33.085938 11.910156 -34.792969 C 12.039062 -35.21875 11.996094 -35.691406 11.910156 -36.160156 C 11.738281 -36.671875 11.484375 -37.054688 11.058594 -37.3125 C 10.203125 -37.824219 9.308594 -37.996094 8.410156 -37.78125 C 7.941406 -37.652344 7.554688 -37.484375 7.128906 -37.269531 C 6.789062 -37.054688 6.402344 -36.800781 6.105469 -36.5 C 5.421875 -35.988281 4.824219 -35.390625 4.269531 -34.75 C 3.160156 -33.46875 2.261719 -32.0625 1.496094 -30.523438 C 0.769531 -29.03125 0.171875 -27.449219 -0.300781 -25.871094 C -0.554688 -25.015625 -0.683594 -24.207031 -0.726562 -23.351562 C -0.726562 -22.457031 -0.640625 -21.644531 -0.382812 -20.789062 C -0.128906 -19.980469 0.214844 -19.210938 0.726562 -18.484375 C 1.28125 -17.800781 1.878906 -17.203125 2.605469 -16.734375 C 3.328125 -16.265625 4.097656 -15.925781 4.953125 -15.710938 C 5.082031 -15.667969 5.207031 -15.625 5.335938 -15.625 C 5.421875 -15.582031 5.507812 -15.582031 5.550781 -15.582031 C 5.636719 -15.539062 5.71875 -15.539062 5.761719 -15.539062 C 5.890625 -15.496094 6.0625 -15.453125 6.191406 -15.453125 L 6.789062 -15.367188 Z M 6.320312 -29.757812 C 6.234375 -29.671875 6.105469 -29.628906 5.933594 -29.585938 C 5.761719 -29.5 5.636719 -29.457031 5.464844 -29.414062 C 5.292969 -29.371094 5.164062 -29.328125 5.082031 -29.285156 C 4.996094 -29.285156 4.910156 -29.285156 4.910156 -29.285156 C 5.082031 -29.796875 5.292969 -30.3125 5.59375 -30.78125 C 5.847656 -31.25 6.105469 -31.632812 6.320312 -31.890625 C 6.402344 -31.976562 6.445312 -32.0625 6.488281 -32.148438 C 6.832031 -32.617188 7.171875 -33.042969 7.597656 -33.46875 C 7.8125 -33.640625 8.027344 -33.855469 8.238281 -34.023438 C 8.28125 -34.066406 8.324219 -34.109375 8.410156 -34.152344 C 8.453125 -34.195312 8.496094 -34.28125 8.582031 -34.324219 C 8.582031 -34.324219 8.625 -34.367188 8.667969 -34.367188 C 8.710938 -34.410156 8.75 -34.453125 8.792969 -34.496094 C 8.792969 -34.496094 8.835938 -34.539062 8.835938 -34.539062 C 8.921875 -34.539062 8.964844 -34.539062 9.050781 -34.539062 C 9.136719 -34.539062 9.179688 -34.496094 9.222656 -34.410156 C 9.308594 -34.367188 9.308594 -34.28125 9.308594 -34.195312 C 9.308594 -34.152344 9.308594 -34.066406 9.308594 -34.023438 C 9.308594 -33.941406 9.265625 -33.855469 9.265625 -33.769531 C 9.222656 -33.214844 9.050781 -32.660156 8.75 -32.191406 C 8.195312 -31.121094 7.386719 -30.3125 6.359375 -29.757812 Z M 6.320312 -29.757812 "/></g></g></g><g fill="#000000" fill-opacity="1"><g transform="translate(171.616635, 171.478065)"><g><path d="M 4.652344 -15.964844 C 4.269531 -15.882812 3.886719 -15.839844 3.5 -15.882812 C 3.117188 -15.925781 2.773438 -16.007812 2.519531 -16.179688 C 2.21875 -16.394531 2.050781 -16.648438 1.921875 -16.992188 C 1.792969 -17.289062 1.707031 -17.632812 1.664062 -17.972656 C 1.621094 -18.230469 1.621094 -18.484375 1.578125 -18.742188 C 1.578125 -18.871094 1.578125 -18.957031 1.535156 -19.039062 C 1.496094 -19.382812 1.496094 -19.722656 1.453125 -20.109375 C 1.453125 -20.449219 1.453125 -20.789062 1.496094 -21.132812 L 1.578125 -22.242188 L 1.75 -24.375 C 1.835938 -25.101562 1.878906 -25.828125 1.921875 -26.554688 C 1.921875 -26.597656 1.921875 -26.640625 1.921875 -26.683594 C 1.964844 -27.367188 1.921875 -28.046875 1.707031 -28.773438 C 1.621094 -29.160156 1.367188 -29.5 0.980469 -29.757812 C 0.554688 -30.011719 0.0859375 -30.097656 -0.382812 -30.054688 C -1.324219 -29.925781 -2.132812 -29.628906 -2.859375 -29.242188 L -2.902344 -29.199219 L -2.945312 -29.160156 C -3.328125 -28.816406 -3.542969 -28.433594 -3.585938 -27.921875 C -3.585938 -27.707031 -3.542969 -27.492188 -3.457031 -27.28125 C -3.457031 -27.238281 -3.457031 -27.238281 -3.414062 -27.238281 C -3.414062 -27.195312 -3.371094 -27.152344 -3.371094 -27.109375 L -3.328125 -27.023438 C -3.289062 -26.980469 -3.246094 -26.980469 -3.246094 -26.9375 C -3.074219 -26.808594 -2.902344 -26.769531 -2.730469 -26.769531 C -2.5625 -26.726562 -2.390625 -26.769531 -2.261719 -26.808594 L -1.964844 -26.9375 C -1.75 -27.023438 -1.578125 -27.066406 -1.453125 -27.066406 C -1.410156 -27.066406 -1.324219 -27.066406 -1.324219 -27.066406 C -1.28125 -27.023438 -1.238281 -26.980469 -1.195312 -26.9375 C -1.152344 -26.808594 -1.109375 -26.683594 -1.066406 -26.511719 C -1.023438 -25.914062 -1.023438 -25.359375 -1.066406 -24.71875 C -1.109375 -24.589844 -1.109375 -24.417969 -1.109375 -24.25 L -1.238281 -21.984375 C -1.324219 -21.21875 -1.324219 -20.449219 -1.367188 -19.679688 C -1.367188 -18.914062 -1.28125 -18.144531 -1.109375 -17.375 C -0.9375 -16.605469 -0.597656 -15.882812 -0.171875 -15.199219 C 0.300781 -14.472656 0.9375 -13.960938 1.835938 -13.660156 C 2.730469 -13.40625 3.671875 -13.320312 4.566406 -13.492188 C 5.039062 -13.574219 5.464844 -13.660156 5.890625 -13.789062 C 6.359375 -13.960938 6.746094 -14.132812 7.171875 -14.34375 C 9.90625 -15.539062 12.464844 -17.460938 14.769531 -20.191406 C 17.078125 -22.882812 18.484375 -24.804688 19.082031 -25.957031 C 19.082031 -25.957031 19.082031 -25.957031 19.082031 -26 C 19.082031 -26.042969 19.082031 -26.128906 19.082031 -26.171875 C 19.082031 -26.253906 19.039062 -26.296875 19.039062 -26.382812 C 18.996094 -26.425781 18.828125 -26.511719 18.484375 -26.597656 C 17.460938 -25.015625 15.496094 -22.925781 12.636719 -20.320312 C 9.734375 -17.675781 7.085938 -16.222656 4.652344 -15.964844 Z M 1.707031 -36.414062 C 1.578125 -36.5 1.453125 -36.585938 1.324219 -36.628906 C 1.195312 -36.671875 1.109375 -36.714844 0.980469 -36.757812 C 0.9375 -36.757812 0.9375 -36.757812 0.898438 -36.757812 C 0.300781 -36.929688 -0.257812 -37.015625 -0.855469 -36.972656 C -1.453125 -36.972656 -2.007812 -36.84375 -2.519531 -36.585938 C -2.816406 -36.457031 -3.03125 -36.289062 -3.246094 -36.074219 C -3.457031 -35.816406 -3.542969 -35.5625 -3.542969 -35.21875 C -3.457031 -34.878906 -3.289062 -34.621094 -2.988281 -34.410156 C -2.730469 -34.238281 -2.433594 -34.109375 -2.175781 -34.023438 C -1.578125 -33.898438 -0.980469 -33.855469 -0.382812 -33.898438 C 0.171875 -33.984375 0.726562 -34.109375 1.238281 -34.410156 C 1.453125 -34.539062 1.664062 -34.707031 1.878906 -34.921875 C 2.050781 -35.136719 2.132812 -35.390625 2.09375 -35.648438 L 2.050781 -35.648438 C 2.050781 -35.945312 1.921875 -36.203125 1.707031 -36.414062 Z M 1.707031 -36.414062 "/></g></g></g><g fill="#000000" fill-opacity="1"><g transform="translate(189.674374, 171.478065)"><g><path d="M 7.855469 -94.179688 C 7.472656 -95.332031 6.703125 -96.011719 5.550781 -96.269531 C 4.867188 -96.398438 4.226562 -96.226562 3.671875 -95.84375 C 3.371094 -95.628906 3.160156 -95.414062 2.988281 -95.117188 C 2.816406 -94.859375 2.730469 -94.605469 2.648438 -94.390625 C 2.519531 -94.007812 2.433594 -93.496094 2.476562 -92.898438 C 2.5625 -92.511719 2.648438 -92.171875 2.859375 -91.871094 C 3.117188 -91.488281 3.5 -91.1875 3.925781 -91.0625 C 4.269531 -90.933594 4.652344 -90.933594 4.996094 -91.019531 C 4.953125 -90.890625 4.910156 -90.804688 4.824219 -90.675781 C 4.523438 -90.164062 4.183594 -89.695312 3.800781 -89.269531 C 3.371094 -88.757812 2.988281 -88.457031 2.648438 -88.285156 L 2.605469 -88.242188 C 2.347656 -88.117188 2.175781 -87.945312 2.09375 -87.6875 C 2.007812 -87.433594 2.007812 -87.175781 2.132812 -86.878906 C 2.261719 -86.621094 2.433594 -86.449219 2.730469 -86.367188 C 2.816406 -86.324219 2.945312 -86.28125 3.074219 -86.28125 C 3.246094 -86.28125 3.371094 -86.324219 3.5 -86.367188 C 4.269531 -86.792969 4.910156 -87.261719 5.378906 -87.816406 C 5.890625 -88.328125 6.359375 -88.882812 6.746094 -89.523438 C 7.171875 -90.207031 7.515625 -90.890625 7.726562 -91.53125 C 8.027344 -92.257812 8.070312 -93.152344 7.855469 -94.179688 Z M 7.855469 -94.179688 "/></g></g></g><g fill="#000000" fill-opacity="1"><g transform="translate(202.908172, 171.478065)"><g><path d="M 23.820312 -26.085938 C 23.609375 -26.128906 23.394531 -26.128906 23.179688 -26.128906 C 23.054688 -26.128906 22.925781 -26.085938 22.839844 -26.085938 C 22.753906 -26.085938 22.667969 -26.085938 22.625 -26.085938 C 22.414062 -26.042969 22.242188 -26 22.070312 -26 C 21.984375 -25.957031 21.945312 -25.957031 21.859375 -25.957031 C 21.730469 -25.914062 21.601562 -25.914062 21.515625 -25.871094 C 20.75 -25.699219 20.066406 -25.488281 19.339844 -25.230469 C 17.929688 -24.761719 16.523438 -24.164062 15.15625 -23.523438 C 13.789062 -22.925781 12.464844 -22.242188 11.140625 -21.515625 C 9.90625 -20.789062 8.667969 -20.066406 7.429688 -19.339844 C 7.128906 -19.765625 6.832031 -20.234375 6.488281 -20.621094 L 5.378906 -22.070312 C 4.652344 -22.96875 3.96875 -23.949219 3.328125 -24.933594 C 3.03125 -25.445312 2.816406 -26 2.648438 -26.511719 C 2.519531 -27.109375 2.476562 -27.664062 2.519531 -28.21875 C 2.5625 -28.816406 2.691406 -29.371094 2.945312 -29.882812 C 3.117188 -30.4375 3.414062 -30.953125 3.757812 -31.421875 C 4.097656 -31.847656 4.523438 -32.273438 4.953125 -32.617188 C 4.996094 -32.660156 5.039062 -32.660156 5.082031 -32.703125 C 5.25 -32.828125 5.464844 -32.957031 5.679688 -33.085938 C 5.71875 -33.085938 5.71875 -33.085938 5.71875 -33.085938 C 5.804688 -33.128906 5.890625 -33.171875 5.933594 -33.214844 C 5.933594 -33.171875 5.933594 -33.171875 5.890625 -33.128906 C 5.890625 -33.085938 5.847656 -33.042969 5.847656 -33 C 5.679688 -32.746094 5.550781 -32.488281 5.378906 -32.273438 C 5.292969 -32.105469 5.164062 -31.976562 5.082031 -31.847656 C 4.867188 -31.464844 4.609375 -31.121094 4.398438 -30.738281 C 4.398438 -30.738281 4.398438 -30.738281 4.398438 -30.695312 C 4.3125 -30.609375 4.226562 -30.4375 4.183594 -30.3125 C 4.140625 -30.269531 4.140625 -30.226562 4.140625 -30.140625 C 4.140625 -30.140625 4.140625 -30.140625 4.097656 -30.097656 C 4.097656 -30.097656 4.097656 -30.054688 4.097656 -30.054688 C 4.097656 -30.011719 4.140625 -29.96875 4.140625 -29.882812 C 4.183594 -29.839844 4.226562 -29.796875 4.269531 -29.796875 C 4.269531 -29.757812 4.3125 -29.757812 4.355469 -29.757812 C 4.355469 -29.757812 4.398438 -29.714844 4.398438 -29.714844 C 4.398438 -29.714844 4.441406 -29.714844 4.441406 -29.714844 C 4.441406 -29.714844 4.484375 -29.714844 4.484375 -29.714844 L 4.523438 -29.757812 C 4.566406 -29.757812 4.609375 -29.757812 4.609375 -29.796875 C 4.652344 -29.796875 4.652344 -29.796875 4.652344 -29.796875 C 4.652344 -29.796875 4.652344 -29.796875 4.695312 -29.796875 L 4.78125 -29.882812 C 4.867188 -29.925781 4.996094 -29.96875 5.082031 -30.011719 C 5.25 -30.097656 5.421875 -30.226562 5.59375 -30.3125 C 5.636719 -30.355469 5.71875 -30.394531 5.804688 -30.4375 C 5.976562 -30.566406 6.191406 -30.695312 6.359375 -30.824219 L 6.703125 -31.078125 L 7.085938 -31.378906 C 7.257812 -31.507812 7.429688 -31.632812 7.554688 -31.804688 C 7.640625 -31.847656 7.726562 -31.933594 7.769531 -31.976562 C 7.8125 -32.019531 7.855469 -32.0625 7.898438 -32.105469 C 8.070312 -32.273438 8.238281 -32.488281 8.410156 -32.703125 C 8.792969 -33.171875 9.09375 -33.726562 9.308594 -34.324219 C 9.433594 -34.621094 9.476562 -34.964844 9.519531 -35.304688 C 9.5625 -35.648438 9.476562 -35.988281 9.308594 -36.332031 C 9.136719 -36.671875 8.835938 -36.886719 8.496094 -37.054688 C 8.152344 -37.140625 7.8125 -37.183594 7.515625 -37.183594 C 6.875 -37.226562 6.277344 -37.140625 5.636719 -37.015625 C 5.039062 -36.84375 4.441406 -36.628906 3.886719 -36.332031 C 2.816406 -35.691406 1.878906 -34.835938 1.152344 -33.855469 C 0.382812 -32.828125 -0.128906 -31.71875 -0.46875 -30.523438 C -0.8125 -29.328125 -0.855469 -28.089844 -0.640625 -26.808594 C -0.511719 -26.210938 -0.339844 -25.613281 -0.0429688 -25.015625 C 0.214844 -24.460938 0.511719 -23.949219 0.898438 -23.4375 C 1.410156 -22.710938 1.964844 -21.984375 2.519531 -21.261719 C 2.691406 -21.046875 2.859375 -20.789062 3.03125 -20.578125 C 3.074219 -20.492188 3.117188 -20.449219 3.160156 -20.40625 C 3.5 -19.980469 3.800781 -19.554688 4.097656 -19.125 C 4.3125 -18.914062 4.484375 -18.65625 4.609375 -18.398438 C 4.738281 -18.230469 4.867188 -18.058594 4.953125 -17.886719 C 4.738281 -17.675781 4.523438 -17.460938 4.3125 -17.289062 C 4.226562 -17.246094 4.183594 -17.203125 4.140625 -17.160156 C 3.800781 -16.863281 3.457031 -16.5625 3.117188 -16.222656 C 2.476562 -15.582031 1.921875 -14.855469 1.410156 -14.132812 C 0.339844 -12.636719 -0.46875 -11.015625 -1.023438 -9.265625 C -1.28125 -8.410156 -1.496094 -7.515625 -1.621094 -6.617188 C -1.75 -5.71875 -1.75 -4.78125 -1.621094 -3.886719 C -1.578125 -3.414062 -1.453125 -2.945312 -1.238281 -2.519531 C -1.023438 -2.09375 -0.769531 -1.707031 -0.425781 -1.367188 C 0.300781 -0.683594 1.152344 -0.300781 2.09375 -0.128906 C 3.074219 0.0429688 3.96875 -0.171875 4.824219 -0.640625 C 5.636719 -1.152344 6.320312 -1.75 6.917969 -2.433594 C 7.515625 -3.117188 8.113281 -3.800781 8.582031 -4.566406 C 9.09375 -5.292969 9.519531 -6.105469 9.863281 -6.957031 C 10.203125 -7.8125 10.460938 -8.667969 10.585938 -9.5625 C 10.714844 -10.503906 10.714844 -11.398438 10.585938 -12.296875 C 10.503906 -13.191406 10.289062 -14.089844 9.988281 -14.941406 L 9.09375 -17.332031 C 10.117188 -18.273438 11.226562 -19.125 12.378906 -19.894531 C 13.617188 -20.664062 14.855469 -21.386719 16.136719 -22.070312 C 17.417969 -22.710938 18.699219 -23.351562 20.023438 -23.949219 L 21.984375 -24.804688 C 22.328125 -24.976562 22.667969 -25.101562 22.96875 -25.273438 C 23.140625 -25.359375 23.308594 -25.445312 23.480469 -25.53125 C 23.566406 -25.574219 23.652344 -25.613281 23.738281 -25.699219 C 23.738281 -25.699219 23.777344 -25.742188 23.820312 -25.785156 C 23.863281 -25.828125 23.863281 -25.871094 23.90625 -25.914062 C 23.90625 -25.957031 23.90625 -25.957031 23.90625 -26 C 23.90625 -26 23.90625 -26.042969 23.863281 -26.042969 C 23.863281 -26.085938 23.863281 -26.085938 23.863281 -26.085938 Z M 6.574219 -15.15625 C 6.875 -14.6875 7.085938 -14.132812 7.214844 -13.535156 C 7.257812 -13.234375 7.34375 -12.894531 7.386719 -12.550781 L 7.515625 -11.570312 L 7.515625 -11.484375 C 7.515625 -11.484375 7.515625 -11.484375 7.515625 -11.441406 C 7.472656 -10.972656 7.386719 -10.542969 7.257812 -10.074219 C 7.171875 -9.777344 7.128906 -9.476562 7.042969 -9.179688 C 6.957031 -8.964844 6.917969 -8.792969 6.875 -8.582031 C 6.703125 -8.070312 6.53125 -7.597656 6.277344 -7.128906 C 6.0625 -6.660156 5.804688 -6.234375 5.507812 -5.804688 C 5.207031 -5.378906 4.867188 -4.996094 4.523438 -4.609375 C 4.441406 -4.484375 4.3125 -4.355469 4.183594 -4.226562 C 4.140625 -4.140625 4.054688 -4.097656 4.011719 -4.054688 C 3.84375 -3.886719 3.628906 -3.714844 3.414062 -3.585938 C 3.246094 -3.457031 3.03125 -3.371094 2.773438 -3.289062 C 2.691406 -3.246094 2.5625 -3.203125 2.476562 -3.203125 C 2.433594 -3.203125 2.390625 -3.203125 2.390625 -3.203125 C 2.347656 -3.203125 2.347656 -3.203125 2.304688 -3.246094 C 2.261719 -3.289062 2.175781 -3.328125 2.132812 -3.414062 C 2.09375 -3.5 2.050781 -3.585938 2.007812 -3.714844 C 1.921875 -3.925781 1.835938 -4.140625 1.835938 -4.398438 C 1.792969 -4.609375 1.75 -4.867188 1.792969 -5.082031 C 1.792969 -5.164062 1.792969 -5.207031 1.792969 -5.25 C 1.792969 -5.464844 1.835938 -5.679688 1.835938 -5.847656 C 1.921875 -6.359375 2.007812 -6.875 2.132812 -7.386719 C 2.347656 -8.367188 2.691406 -9.347656 3.117188 -10.289062 C 3.585938 -11.226562 4.097656 -12.125 4.695312 -12.976562 C 5.207031 -13.789062 5.847656 -14.515625 6.574219 -15.15625 Z M 6.574219 -15.15625 "/></g></g></g><g fill="#000000" fill-opacity="1"><g transform="translate(73.387689, 293.056185)"><g><path d="M 47.984375 -83.035156 C 48.199219 -85.253906 48.242188 -87.347656 48.070312 -89.3125 C 47.855469 -91.617188 47.386719 -93.707031 46.660156 -95.542969 C 45.679688 -97.933594 44.441406 -99.769531 42.90625 -101.007812 C 40.984375 -102.589844 38.765625 -103.355469 36.246094 -103.355469 C 31.847656 -103.355469 27.28125 -101.222656 22.542969 -96.910156 C 17.800781 -92.597656 14.089844 -87.21875 11.3125 -80.730469 L 10.542969 -78.808594 L 10.671875 -80.902344 C 10.929688 -85.210938 11.3125 -89.609375 11.78125 -94.09375 C 12.253906 -98.574219 12.722656 -102.546875 13.191406 -105.917969 L 13.191406 -105.960938 C 13.234375 -106.300781 13.148438 -106.644531 12.9375 -106.941406 C 12.722656 -107.199219 12.421875 -107.371094 12.039062 -107.453125 C 11.996094 -107.453125 11.910156 -107.453125 11.867188 -107.453125 C 11.527344 -107.453125 11.226562 -107.371094 11.015625 -107.113281 C 10.757812 -106.898438 10.585938 -106.644531 10.542969 -106.300781 C 9.988281 -102.546875 9.519531 -98.574219 9.136719 -94.347656 C 8.75 -90.507812 8.453125 -86.492188 8.195312 -82.351562 C 7.941406 -78.039062 7.769531 -73.601562 7.640625 -68.945312 L 7.640625 -68.90625 C 7.257812 -66.855469 6.917969 -64.636719 6.574219 -62.289062 C 5.890625 -57.421875 5.378906 -52.253906 4.996094 -46.832031 L 4.996094 -46.660156 L 4.910156 -46.578125 C 4.183594 -45.980469 3.542969 -45.382812 2.988281 -44.742188 C 2.21875 -43.84375 1.578125 -42.949219 1.109375 -42.007812 C 0.46875 -40.8125 0.171875 -39.660156 0.171875 -38.59375 C 0.171875 -37.824219 0.300781 -37.097656 0.640625 -36.5 C 1.066406 -35.734375 1.664062 -35.179688 2.476562 -34.921875 C 2.859375 -34.75 3.289062 -34.707031 3.757812 -34.707031 C 3.84375 -34.707031 3.96875 -34.707031 4.054688 -34.707031 L 4.441406 -34.75 L 4.398438 -34.367188 C 4.226562 -27.40625 4.269531 -20.707031 4.523438 -14.214844 C 4.695312 -9.734375 4.996094 -5.71875 5.378906 -2.175781 C 5.59375 0.0859375 5.890625 2.09375 6.191406 3.886719 C 6.488281 5.804688 7 7.855469 7.726562 9.945312 C 7.898438 10.417969 8.152344 10.929688 8.496094 11.570312 L 8.539062 11.570312 C 8.625 11.699219 8.710938 11.824219 8.792969 11.953125 L 8.878906 12.082031 C 8.921875 12.167969 9.007812 12.253906 9.136719 12.378906 L 9.179688 12.378906 C 9.222656 12.421875 9.347656 12.507812 9.476562 12.59375 C 9.648438 12.679688 9.820312 12.722656 10.074219 12.722656 C 10.117188 12.765625 10.160156 12.765625 10.203125 12.765625 C 10.460938 12.765625 10.671875 12.679688 10.886719 12.59375 C 11.058594 12.507812 11.226562 12.378906 11.355469 12.253906 C 11.484375 12.082031 11.613281 11.953125 11.65625 11.824219 C 11.699219 11.738281 11.738281 11.65625 11.78125 11.570312 C 11.824219 11.398438 11.867188 11.3125 11.867188 11.183594 C 11.910156 11.015625 11.953125 10.84375 11.996094 10.671875 C 12.039062 10.160156 12.082031 9.605469 12.082031 9.050781 C 12.082031 8.625 12.125 8.113281 12.125 7.515625 C 12.082031 5.550781 12.039062 3.542969 11.996094 1.453125 C 11.867188 -1.578125 11.738281 -4.609375 11.613281 -7.554688 L 11.613281 -7.683594 L 11.527344 -10.503906 C 11.226562 -17.417969 10.929688 -25.402344 10.714844 -34.410156 C 10.714844 -35.050781 10.671875 -35.691406 10.671875 -36.289062 L 10.671875 -36.542969 L 10.886719 -36.628906 C 11.269531 -36.757812 11.65625 -36.929688 12.039062 -37.054688 C 13.917969 -37.824219 15.753906 -38.636719 17.589844 -39.617188 C 21.304688 -41.496094 24.71875 -43.714844 27.878906 -46.234375 C 28.6875 -46.875 29.542969 -47.644531 30.523438 -48.539062 C 31.507812 -49.4375 32.316406 -50.207031 32.957031 -50.804688 L 33.085938 -50.929688 L 33.257812 -50.929688 C 34.066406 -50.804688 34.835938 -50.71875 35.519531 -50.589844 C 36.203125 -50.460938 37.015625 -50.289062 37.867188 -50.078125 C 37.953125 -50.078125 38.039062 -50.035156 38.125 -49.992188 C 38.335938 -49.949219 38.507812 -49.90625 38.679688 -49.90625 C 38.722656 -49.90625 38.765625 -49.90625 38.808594 -49.90625 C 38.847656 -49.949219 38.847656 -49.992188 38.847656 -49.992188 C 38.890625 -50.078125 38.890625 -50.164062 38.890625 -50.25 C 38.847656 -50.289062 38.808594 -50.375 38.679688 -50.417969 C 38.550781 -50.503906 38.378906 -50.589844 38.082031 -50.675781 C 37.226562 -50.972656 36.246094 -51.230469 35.136719 -51.484375 C 34.921875 -51.527344 34.707031 -51.613281 34.496094 -51.65625 L 33.898438 -51.785156 L 34.28125 -52.210938 C 35.09375 -53.066406 35.859375 -53.960938 36.585938 -54.902344 C 39.148438 -58.0625 41.324219 -61.5625 43.117188 -65.316406 C 44.828125 -68.945312 46.148438 -72.832031 47.003906 -76.972656 C 47.429688 -78.980469 47.773438 -80.984375 47.984375 -83.035156 Z M 4.738281 -42.863281 C 4.695312 -42.394531 4.695312 -41.835938 4.652344 -41.15625 C 4.652344 -40.472656 4.609375 -39.789062 4.566406 -39.191406 L 4.523438 -38.292969 L 4.523438 -37.484375 L 4.269531 -37.441406 L 4.183594 -37.441406 C 4.011719 -37.398438 3.84375 -37.398438 3.714844 -37.398438 C 3.585938 -37.398438 3.457031 -37.398438 3.371094 -37.441406 L 3.328125 -37.441406 C 3.289062 -37.441406 3.203125 -37.484375 3.160156 -37.527344 C 3.117188 -37.570312 3.03125 -37.652344 2.988281 -37.738281 C 2.902344 -37.910156 2.816406 -38.167969 2.816406 -38.550781 C 2.648438 -39.746094 3.074219 -41.238281 4.097656 -43.074219 L 4.78125 -44.101562 Z M 6.105469 -48.070312 L 6.746094 -55.03125 L 7.429688 -54.988281 L 7.171875 -48.414062 L 7.171875 -48.285156 L 6.019531 -47.132812 Z M 6.019531 -44.3125 C 6.0625 -44.441406 6.105469 -44.570312 6.234375 -44.699219 C 6.320312 -44.785156 6.402344 -44.867188 6.488281 -44.953125 C 6.574219 -44.996094 6.617188 -45.039062 6.660156 -45.082031 L 7.171875 -45.339844 L 7.171875 -44.785156 L 7.300781 -38.421875 L 7.300781 -38.167969 L 7.085938 -38.082031 L 6.445312 -37.867188 L 6.019531 -37.695312 L 5.976562 -38.167969 C 5.976562 -38.808594 5.976562 -39.574219 5.976562 -40.472656 C 5.976562 -41.367188 5.976562 -42.222656 5.976562 -42.949219 C 5.976562 -43.714844 5.976562 -44.144531 6.019531 -44.3125 Z M 9.050781 6.957031 C 8.238281 5.164062 7.554688 2.007812 7.042969 -2.476562 C 6.488281 -7 6.191406 -11.015625 6.148438 -14.515625 C 6.105469 -18.015625 6.0625 -21.21875 6.019531 -24.121094 C 5.890625 -28.773438 5.890625 -32.273438 6.019531 -34.582031 C 6.0625 -34.707031 6.105469 -34.835938 6.234375 -34.921875 C 6.320312 -35.007812 6.445312 -35.050781 6.574219 -35.09375 C 6.746094 -35.136719 6.832031 -35.179688 6.917969 -35.179688 C 7.085938 -35.179688 7.171875 -35.136719 7.257812 -35.050781 C 7.34375 -34.964844 7.386719 -34.878906 7.386719 -34.75 C 7.429688 -33.128906 7.554688 -30.609375 7.683594 -27.152344 C 7.855469 -23.652344 8.027344 -20.277344 8.152344 -16.992188 C 8.324219 -13.875 8.410156 -11.699219 8.496094 -10.375 L 8.582031 -7.472656 C 8.625 -7.34375 8.667969 -6.574219 8.75 -5.164062 C 8.878906 -3.757812 9.007812 -2.175781 9.136719 -0.382812 C 9.476562 4.140625 9.691406 6.53125 9.691406 6.789062 L 9.777344 8.28125 Z M 29.03125 -50.761719 C 28.859375 -50.632812 28.644531 -50.417969 28.304688 -50.164062 C 27.964844 -49.90625 27.578125 -49.652344 27.195312 -49.351562 C 26.980469 -49.179688 26.726562 -49.011719 26.554688 -48.839844 C 26.339844 -48.667969 26.171875 -48.582031 26.085938 -48.496094 C 23.097656 -46.0625 19.808594 -43.929688 16.308594 -42.09375 C 14.601562 -41.15625 12.808594 -40.34375 11.058594 -39.617188 L 10.585938 -39.445312 L 10.585938 -39.960938 C 10.542969 -42.820312 10.503906 -45.296875 10.460938 -47.34375 L 10.460938 -47.558594 L 10.628906 -47.644531 C 13.148438 -49.222656 15.753906 -50.25 18.359375 -50.804688 C 20.960938 -51.316406 23.265625 -51.570312 25.230469 -51.570312 C 26.894531 -51.570312 28.046875 -51.484375 28.601562 -51.359375 C 28.644531 -51.359375 28.644531 -51.359375 28.6875 -51.359375 C 28.730469 -51.359375 28.773438 -51.359375 28.816406 -51.359375 L 29.671875 -51.316406 Z M 44.953125 -83.335938 C 44.742188 -81.414062 44.441406 -79.492188 44.058594 -77.613281 C 43.246094 -73.6875 42.007812 -70.015625 40.429688 -66.554688 C 38.765625 -63.011719 36.714844 -59.726562 34.324219 -56.695312 C 33.128906 -55.199219 31.847656 -53.792969 30.4375 -52.382812 L 30.355469 -52.296875 L 30.183594 -52.296875 C 29.796875 -52.339844 29.457031 -52.339844 29.074219 -52.382812 C 28.132812 -52.46875 27.109375 -52.511719 26 -52.511719 C 25.613281 -52.554688 25.230469 -52.554688 24.890625 -52.554688 C 20.75 -52.554688 17.078125 -52.042969 13.789062 -51.101562 C 12.808594 -50.804688 11.824219 -50.460938 10.929688 -50.078125 L 10.460938 -49.90625 L 10.460938 -50.417969 C 10.417969 -53.109375 10.417969 -55.753906 10.417969 -58.316406 C 10.460938 -62.03125 10.503906 -65.617188 10.585938 -69.03125 L 10.585938 -69.074219 C 10.886719 -70.613281 11.183594 -72.105469 11.527344 -73.558594 C 11.996094 -75.605469 12.507812 -77.484375 13.0625 -79.191406 C 13.746094 -81.285156 14.472656 -83.035156 15.242188 -84.488281 C 17.289062 -88.199219 19.511719 -91.359375 21.945312 -93.921875 C 22.667969 -94.691406 23.351562 -95.375 23.992188 -95.929688 C 24.71875 -96.609375 25.488281 -97.167969 26.210938 -97.722656 C 27.835938 -98.875 29.457031 -99.726562 31.121094 -100.28125 C 32.445312 -100.753906 33.769531 -100.964844 35.007812 -100.964844 C 35.433594 -100.964844 35.902344 -100.921875 36.332031 -100.878906 C 38.082031 -100.625 39.574219 -99.941406 40.898438 -98.789062 C 42.136719 -97.679688 43.117188 -96.226562 43.84375 -94.433594 C 44.441406 -92.855469 44.867188 -91.0625 45.039062 -89.054688 C 45.210938 -87.304688 45.167969 -85.382812 44.953125 -83.335938 Z M 44.953125 -83.335938 "/></g></g></g><g fill="#000000" fill-opacity="1"><g transform="translate(95.330182, 293.056185)"><g><path d="M 19.382812 -25.699219 C 19.253906 -25.914062 19.082031 -26 18.828125 -26 C 18.570312 -26 18.144531 -25.957031 17.589844 -25.871094 C 16.777344 -25.699219 15.285156 -25.488281 13.0625 -25.273438 C 13.492188 -27.578125 13.449219 -30.011719 12.894531 -32.53125 C 12.421875 -34.410156 11.398438 -35.859375 9.90625 -36.929688 C 7.554688 -38.421875 4.910156 -38.125 2.007812 -35.945312 C 0.339844 -34.664062 -0.9375 -33.085938 -1.878906 -31.25 C -2.859375 -29.414062 -3.03125 -27.878906 -2.390625 -26.597656 C -1.921875 -25.871094 -1.453125 -25.359375 -1.023438 -25.015625 L -0.898438 -24.933594 C -0.898438 -23.777344 -0.8125 -22.457031 -0.726562 -20.917969 C -0.640625 -19.039062 -0.214844 -17.203125 0.46875 -15.453125 C 1.367188 -13.277344 2.433594 -12.039062 3.757812 -11.78125 C 3.925781 -11.738281 4.140625 -11.738281 4.3125 -11.738281 C 5.421875 -11.738281 6.660156 -12.378906 7.941406 -13.703125 C 9.433594 -15.367188 10.585938 -17.160156 11.398438 -18.996094 C 12.210938 -20.832031 12.722656 -22.328125 12.9375 -23.4375 C 13.492188 -23.523438 14.257812 -23.652344 15.199219 -23.820312 C 16.136719 -24.035156 17.035156 -24.25 17.84375 -24.503906 C 18.699219 -24.761719 19.210938 -25.015625 19.382812 -25.316406 C 19.425781 -25.445312 19.425781 -25.574219 19.382812 -25.699219 Z M 2.5625 -26.640625 C 2.859375 -27.921875 3.160156 -28.816406 3.414062 -29.414062 C 3.671875 -30.011719 3.925781 -30.355469 4.183594 -30.523438 C 4.484375 -30.695312 4.738281 -30.78125 4.996094 -30.78125 C 5.164062 -30.824219 5.335938 -30.867188 5.507812 -30.910156 L 5.71875 -30.953125 L 5.59375 -31.164062 C 5.25 -31.761719 4.609375 -32.105469 3.800781 -32.148438 C 2.648438 -32.148438 1.707031 -31.507812 0.898438 -30.226562 C 0.683594 -29.839844 0.46875 -29.328125 0.257812 -28.730469 C 0.382812 -29.199219 0.554688 -29.671875 0.8125 -30.140625 C 0.980469 -30.695312 1.664062 -31.632812 2.859375 -32.914062 C 3.5 -33.511719 4.140625 -33.984375 4.738281 -34.28125 C 6.746094 -35.304688 8.453125 -35.261719 9.734375 -34.152344 C 10.585938 -33.300781 11.058594 -31.933594 11.140625 -30.011719 C 11.183594 -28.132812 11.058594 -26.511719 10.757812 -25.101562 C 9.605469 -25.015625 8.152344 -25.144531 6.402344 -25.445312 C 4.652344 -25.785156 3.371094 -26.171875 2.5625 -26.640625 Z M 2.261719 -23.523438 C 3.371094 -23.097656 4.695312 -22.839844 6.234375 -22.796875 C 7.769531 -22.710938 9.09375 -22.796875 10.203125 -22.96875 C 9.476562 -19.722656 8.195312 -17.121094 6.320312 -15.15625 C 5.679688 -14.558594 5.121094 -14.300781 4.652344 -14.386719 C 4.183594 -14.472656 3.714844 -14.984375 3.246094 -15.925781 C 2.902344 -16.734375 2.648438 -17.546875 2.476562 -18.398438 C 2.261719 -19.808594 2.175781 -20.917969 2.175781 -21.6875 C 2.132812 -22.457031 2.175781 -23.097656 2.261719 -23.523438 Z M 2.261719 -23.523438 "/></g></g></g><g fill="#000000" fill-opacity="1"><g transform="translate(116.248122, 293.056185)"><g><path d="M 24.847656 -26.851562 C 24.589844 -26.808594 24.417969 -26.640625 24.292969 -26.425781 L 24.292969 -26.339844 L 24.25 -26.296875 L 24.25 -26.171875 L 24.164062 -26 C 23.992188 -25.488281 23.777344 -24.933594 23.566406 -24.417969 C 22.753906 -22.371094 21.6875 -20.40625 20.363281 -18.613281 C 19.082031 -16.777344 17.546875 -15.242188 15.710938 -13.960938 C 14.769531 -13.363281 13.789062 -12.894531 12.765625 -12.59375 C 11.65625 -12.253906 10.628906 -12.296875 9.691406 -12.722656 C 9.265625 -12.976562 8.964844 -13.363281 8.792969 -13.875 C 8.625 -14.34375 8.539062 -14.898438 8.496094 -15.453125 C 8.453125 -16.523438 8.539062 -17.632812 8.710938 -18.742188 C 8.835938 -19.59375 8.964844 -20.40625 9.136719 -21.261719 C 9.179688 -21.515625 9.222656 -21.773438 9.265625 -22.027344 L 9.605469 -23.695312 C 9.691406 -24.25 9.820312 -24.804688 9.90625 -25.359375 L 10.417969 -28.6875 C 10.503906 -29.160156 10.542969 -29.585938 10.628906 -30.054688 C 10.628906 -30.140625 10.628906 -30.269531 10.628906 -30.355469 C 10.671875 -30.566406 10.714844 -30.738281 10.714844 -30.953125 C 10.757812 -31.292969 10.800781 -31.675781 10.84375 -32.019531 C 10.84375 -32.105469 10.886719 -32.230469 10.886719 -32.316406 C 11.058594 -33.34375 11.015625 -34.410156 10.757812 -35.433594 C 10.585938 -36.03125 10.246094 -36.542969 9.734375 -36.886719 C 9.179688 -37.226562 8.625 -37.398438 7.984375 -37.3125 C 7.683594 -37.269531 7.386719 -37.183594 7.128906 -37.054688 C 6.875 -37.015625 6.617188 -36.929688 6.402344 -36.886719 C 6.488281 -37.484375 6.488281 -38.125 6.445312 -38.722656 C 6.445312 -39.0625 6.359375 -39.40625 6.320312 -39.746094 C 6.277344 -39.917969 6.234375 -40.085938 6.148438 -40.257812 C 6.105469 -40.386719 6.0625 -40.515625 6.019531 -40.601562 C 5.976562 -40.640625 5.976562 -40.726562 5.933594 -40.769531 C 5.761719 -41.113281 5.464844 -41.367188 5.082031 -41.496094 C 4.910156 -41.582031 4.695312 -41.625 4.523438 -41.582031 C 4.398438 -41.582031 4.3125 -41.582031 4.226562 -41.539062 C 4.140625 -41.496094 4.054688 -41.496094 3.925781 -41.453125 C 3.628906 -41.238281 3.328125 -40.984375 3.117188 -40.683594 C 3.03125 -40.558594 2.945312 -40.429688 2.859375 -40.300781 C 2.859375 -40.300781 2.859375 -40.257812 2.859375 -40.257812 C 2.816406 -40.214844 2.816406 -40.171875 2.773438 -40.085938 C 2.691406 -40.003906 2.648438 -39.917969 2.605469 -39.789062 C 2.261719 -39.191406 2.050781 -38.507812 1.964844 -37.824219 C 1.964844 -37.441406 2.007812 -37.097656 2.09375 -36.757812 C 2.175781 -36.375 2.347656 -36.074219 2.5625 -35.777344 C 2.945312 -35.261719 3.414062 -34.878906 4.011719 -34.664062 C 4.011719 -34.621094 3.96875 -34.582031 3.96875 -34.582031 C 3.96875 -34.539062 3.96875 -34.496094 3.925781 -34.453125 C 3.757812 -33.855469 3.542969 -33.300781 3.328125 -32.703125 C 2.347656 -30.480469 1.066406 -28.390625 -0.511719 -26.511719 L -0.46875 -26.511719 C -0.640625 -26.339844 -0.683594 -26.128906 -0.640625 -25.914062 C -0.554688 -25.742188 -0.425781 -25.574219 -0.214844 -25.488281 C 0 -25.445312 0.214844 -25.488281 0.382812 -25.613281 C 0.425781 -25.65625 0.46875 -25.699219 0.511719 -25.742188 C 0.511719 -25.785156 0.554688 -25.785156 0.554688 -25.785156 L 0.726562 -26 C 1.195312 -26.511719 1.621094 -27.023438 2.007812 -27.535156 C 2.859375 -28.601562 3.585938 -29.757812 4.269531 -30.953125 C 4.867188 -32.019531 5.335938 -33.128906 5.761719 -34.324219 C 5.976562 -34.324219 6.148438 -34.324219 6.359375 -34.324219 C 6.703125 -34.324219 7.085938 -34.367188 7.429688 -34.453125 C 7.515625 -34.496094 7.640625 -34.496094 7.769531 -34.539062 C 7.8125 -34.539062 7.855469 -34.539062 7.898438 -34.582031 L 8.113281 -34.621094 C 8.113281 -34.582031 8.152344 -34.496094 8.152344 -34.453125 C 8.152344 -34.324219 8.152344 -34.195312 8.152344 -34.066406 C 8.152344 -33.8125 8.113281 -33.511719 8.070312 -33.257812 C 7.984375 -32.703125 7.898438 -32.148438 7.769531 -31.632812 C 7.515625 -30.523438 7.257812 -29.457031 7 -28.347656 C 6.917969 -27.964844 6.832031 -27.578125 6.746094 -27.195312 C 6.574219 -26.46875 6.402344 -25.785156 6.234375 -25.058594 C 6.019531 -23.949219 5.847656 -22.839844 5.71875 -21.730469 C 5.421875 -19.46875 5.421875 -17.203125 5.71875 -14.941406 C 5.804688 -14.34375 5.976562 -13.789062 6.148438 -13.234375 C 6.359375 -12.679688 6.660156 -12.167969 7 -11.699219 C 7.386719 -11.226562 7.855469 -10.84375 8.410156 -10.542969 C 8.921875 -10.246094 9.519531 -10.074219 10.117188 -9.988281 C 11.269531 -9.863281 12.421875 -9.988281 13.574219 -10.375 C 14.644531 -10.757812 15.667969 -11.269531 16.648438 -11.910156 C 18.570312 -13.234375 20.152344 -14.8125 21.472656 -16.734375 C 22.753906 -18.613281 23.820312 -20.578125 24.675781 -22.710938 C 24.890625 -23.222656 25.058594 -23.777344 25.230469 -24.335938 C 25.316406 -24.589844 25.445312 -24.847656 25.488281 -25.101562 L 25.613281 -25.53125 L 25.699219 -25.742188 L 25.742188 -25.828125 L 25.742188 -25.871094 C 25.742188 -25.871094 25.742188 -25.914062 25.742188 -25.914062 C 25.742188 -25.914062 25.742188 -25.957031 25.742188 -25.957031 C 25.785156 -26.210938 25.699219 -26.46875 25.53125 -26.640625 C 25.359375 -26.808594 25.101562 -26.894531 24.847656 -26.851562 Z M 8.238281 -34.621094 C 8.238281 -34.621094 8.238281 -34.621094 8.28125 -34.621094 C 8.28125 -34.621094 8.28125 -34.621094 8.238281 -34.621094 C 8.238281 -34.621094 8.238281 -34.621094 8.28125 -34.621094 Z M 4.355469 -38.167969 C 4.355469 -38.292969 4.398438 -38.421875 4.441406 -38.507812 C 4.484375 -38.335938 4.484375 -38.167969 4.484375 -37.996094 C 4.484375 -37.738281 4.484375 -37.441406 4.484375 -37.183594 C 4.398438 -37.226562 4.355469 -37.3125 4.3125 -37.441406 C 4.269531 -37.652344 4.269531 -37.910156 4.355469 -38.167969 Z M 4.355469 -38.167969 "/></g></g></g><g fill="#000000" fill-opacity="1"><g transform="translate(140.965451, 293.056185)"><g><path d="M 30.355469 -74.113281 L 36.886719 -74.667969 L 36.972656 -74.667969 C 36.972656 -74.667969 36.972656 -74.710938 36.972656 -74.710938 C 37.140625 -74.839844 37.3125 -75.007812 37.441406 -75.222656 C 37.484375 -75.308594 37.484375 -75.351562 37.484375 -75.4375 C 37.484375 -75.5625 37.441406 -75.605469 37.398438 -75.691406 C 37.3125 -75.777344 37.183594 -75.863281 37.054688 -75.90625 C 36.628906 -76.035156 36.203125 -76.078125 35.777344 -76.078125 C 35.734375 -76.078125 35.691406 -76.078125 35.691406 -76.078125 C 34.878906 -76.078125 34.109375 -76.035156 33.300781 -75.992188 C 33.171875 -75.949219 33.042969 -75.949219 32.957031 -75.949219 L 32.914062 -75.992188 L 11.058594 -74.710938 L 11.699219 -90.035156 L 11.738281 -93.921875 L 11.78125 -95.84375 C 11.78125 -96.269531 11.78125 -96.695312 11.78125 -97.082031 C 11.78125 -97.335938 11.78125 -97.550781 11.78125 -97.808594 C 11.78125 -99.085938 11.699219 -100.367188 11.484375 -101.691406 C 11.398438 -102.332031 11.183594 -102.972656 10.886719 -103.570312 C 10.714844 -103.867188 10.460938 -104.125 10.160156 -104.339844 C 9.820312 -104.507812 9.476562 -104.59375 9.09375 -104.59375 C 8.75 -104.550781 8.410156 -104.425781 8.113281 -104.210938 C 7.8125 -103.996094 7.597656 -103.742188 7.429688 -103.441406 C 7.085938 -102.84375 6.875 -102.246094 6.746094 -101.605469 L 6.53125 -100.625 L 6.445312 -100.15625 L 6.402344 -99.640625 C 6.320312 -99.003906 6.277344 -98.363281 6.234375 -97.722656 C 6.019531 -95.5 5.933594 -93.28125 5.890625 -91.0625 C 5.890625 -90.675781 5.890625 -90.335938 5.890625 -89.953125 L 5.59375 -74.625 C 5.421875 -74.582031 5.207031 -74.582031 4.996094 -74.539062 C 4.996094 -74.539062 4.953125 -74.539062 4.910156 -74.539062 L 4.054688 -74.410156 L 2.261719 -74.199219 L 1.410156 -74.113281 L 0.511719 -74.070312 L -1.238281 -73.984375 C -3.628906 -73.855469 -5.976562 -73.6875 -8.367188 -73.515625 C -13.0625 -73.128906 -17.800781 -72.703125 -22.5 -72.234375 C -23.609375 -72.105469 -24.71875 -71.976562 -25.828125 -71.894531 C -29.414062 -71.507812 -33.042969 -71.125 -36.628906 -70.699219 C -41.367188 -70.140625 -46.023438 -69.289062 -50.632812 -68.179688 L -50.546875 -67.625 C -48.882812 -67.75 -47.257812 -67.921875 -45.59375 -68.050781 C -42.5625 -68.347656 -39.53125 -68.605469 -36.5 -68.863281 L -22.414062 -70.101562 L -8.324219 -71.296875 L -1.324219 -71.894531 C -0.9375 -71.894531 -0.554688 -71.933594 -0.214844 -71.976562 C 0.597656 -72.0625 1.410156 -72.105469 2.21875 -72.148438 C 2.21875 -72.191406 2.261719 -72.191406 2.304688 -72.191406 C 3.328125 -72.277344 4.398438 -72.320312 5.421875 -72.277344 C 5.507812 -70.65625 5.550781 -69.03125 5.550781 -67.367188 L 5.550781 -62.160156 L 5.59375 -51.65625 L 5.679688 -30.738281 L 5.679688 -25.488281 C 5.679688 -23.738281 5.679688 -22.027344 5.71875 -20.277344 L 5.933594 -9.777344 C 5.976562 -9.222656 5.976562 -8.625 6.019531 -8.070312 C 6.105469 -5.164062 6.148438 -2.261719 6.105469 0.640625 C 6.0625 2.390625 5.976562 4.140625 5.804688 5.847656 C 5.71875 6.703125 5.59375 7.597656 5.464844 8.453125 C 5.421875 8.667969 5.421875 8.878906 5.421875 9.136719 C 5.421875 9.390625 5.507812 9.648438 5.636719 9.90625 C 5.847656 10.160156 6.0625 10.289062 6.320312 10.375 C 6.574219 10.460938 6.832031 10.503906 7.128906 10.417969 C 7.429688 10.332031 7.640625 10.160156 7.8125 9.90625 C 7.941406 9.691406 8.027344 9.476562 8.113281 9.265625 C 8.238281 8.835938 8.367188 8.410156 8.453125 7.984375 C 8.625 7.085938 8.75 6.234375 8.835938 5.335938 C 8.964844 3.628906 9.007812 1.878906 9.007812 0.171875 C 9.007812 0.171875 9.007812 0.128906 9.007812 0.0859375 C 9.050781 -3.414062 9.007812 -6.875 8.964844 -10.375 L 8.710938 -20.832031 C 8.710938 -21.386719 8.667969 -21.945312 8.667969 -22.457031 C 8.625 -23.695312 8.625 -24.890625 8.582031 -26.085938 L 8.835938 -31.292969 L 9.347656 -41.753906 L 9.90625 -52.210938 L 11.015625 -72.917969 L 23.863281 -73.6875 C 24.164062 -73.6875 24.503906 -73.730469 24.847656 -73.730469 C 26.683594 -73.855469 28.519531 -73.984375 30.355469 -74.113281 Z M 8.75 -66.597656 L 8.710938 -66.597656 L 8.667969 -65.957031 C 8.667969 -66.855469 8.667969 -67.792969 8.625 -68.691406 C 8.625 -68.863281 8.625 -69.074219 8.625 -69.246094 L 8.582031 -71.039062 C 8.582031 -71.335938 8.582031 -71.59375 8.582031 -71.894531 C 8.582031 -72.148438 8.625 -72.40625 8.667969 -72.617188 C 8.75 -72.660156 8.835938 -72.660156 8.964844 -72.703125 L 8.921875 -71.421875 C 8.878906 -71.253906 8.878906 -71.125 8.878906 -70.996094 C 8.878906 -70.613281 8.835938 -70.226562 8.792969 -69.800781 C 8.75 -69.417969 8.75 -68.988281 8.75 -68.605469 C 8.75 -68.476562 8.710938 -68.347656 8.710938 -68.222656 C 8.710938 -67.667969 8.710938 -67.152344 8.75 -66.597656 Z M 9.179688 -78.296875 L 9.007812 -74.882812 L 8.710938 -74.882812 L 8.667969 -77.742188 C 8.667969 -78.425781 8.667969 -79.109375 8.667969 -79.789062 C 8.710938 -80.175781 8.710938 -80.515625 8.710938 -80.902344 L 8.792969 -87.21875 L 8.835938 -90.378906 C 8.835938 -90.71875 8.835938 -91.019531 8.835938 -91.359375 C 8.835938 -92.085938 8.835938 -92.8125 8.878906 -93.539062 C 8.878906 -93.75 8.878906 -93.964844 8.921875 -94.179688 C 8.921875 -94.476562 8.964844 -94.816406 8.964844 -95.160156 C 8.964844 -95.289062 8.921875 -95.414062 8.921875 -95.542969 L 8.878906 -95.671875 C 8.878906 -95.714844 8.878906 -95.714844 8.878906 -95.714844 C 8.878906 -95.714844 8.878906 -95.714844 8.878906 -95.757812 L 8.878906 -95.929688 L 8.835938 -96.695312 C 8.835938 -96.910156 8.835938 -97.082031 8.835938 -97.25 C 8.835938 -98.148438 8.835938 -99.003906 8.835938 -99.855469 L 8.878906 -99.855469 C 8.921875 -100.070312 8.964844 -100.28125 8.964844 -100.496094 C 9.050781 -100.878906 9.09375 -101.308594 9.179688 -101.691406 C 9.179688 -101.691406 9.179688 -101.734375 9.179688 -101.734375 C 9.179688 -101.734375 9.222656 -101.734375 9.222656 -101.734375 C 9.222656 -101.734375 9.222656 -101.691406 9.222656 -101.691406 C 9.308594 -101.394531 9.347656 -101.09375 9.390625 -100.796875 C 9.519531 -100.15625 9.5625 -99.558594 9.605469 -98.917969 L 9.734375 -97.039062 C 9.777344 -95.886719 9.820312 -94.734375 9.820312 -93.582031 C 9.820312 -93.496094 9.820312 -93.410156 9.820312 -93.324219 C 9.820312 -92.042969 9.777344 -90.804688 9.734375 -89.566406 L 9.347656 -82.054688 Z M 9.050781 -102.503906 C 9.050781 -102.503906 9.050781 -102.503906 9.007812 -102.503906 C 9.007812 -102.546875 9.007812 -102.546875 9.007812 -102.546875 C 9.007812 -102.546875 9.050781 -102.503906 9.050781 -102.503906 Z M 9.050781 -102.503906 "/></g></g></g><g fill="#000000" fill-opacity="1"><g transform="translate(161.712632, 293.056185)"><g><path d="M 8.238281 -21.429688 C 14.003906 -23.308594 17.246094 -24.417969 18.015625 -24.71875 C 18.785156 -25.058594 18.996094 -25.574219 18.65625 -26.253906 L 18.527344 -26.296875 C 18.484375 -26.296875 18.441406 -26.339844 18.441406 -26.339844 C 18.359375 -26.339844 17.84375 -26.210938 16.863281 -25.914062 C 15.882812 -25.65625 14.6875 -25.316406 13.234375 -24.890625 C 11.78125 -24.460938 10.375 -24.078125 8.921875 -23.652344 C 7.597656 -23.265625 6.488281 -22.925781 5.550781 -22.667969 C 4.609375 -22.414062 4.054688 -22.242188 3.886719 -22.199219 C 3.328125 -22.070312 2.730469 -21.984375 2.175781 -21.902344 C 2.132812 -23.140625 2.261719 -24.804688 2.476562 -26.851562 C 2.730469 -28.945312 2.988281 -30.480469 3.203125 -31.59375 L 4.398438 -34.75 C 4.695312 -35.433594 4.953125 -36.117188 5.164062 -36.800781 C 5.335938 -37.183594 5.464844 -37.570312 5.59375 -37.953125 L 7.941406 -44.398438 C 8.070312 -44.742188 8.195312 -45.082031 8.28125 -45.464844 C 8.367188 -45.636719 8.410156 -45.808594 8.496094 -45.980469 C 8.539062 -46.191406 8.625 -46.363281 8.667969 -46.578125 C 8.792969 -46.917969 8.878906 -47.257812 9.007812 -47.644531 L 9.519531 -49.265625 C 9.605469 -49.609375 9.691406 -49.992188 9.777344 -50.332031 C 9.820312 -50.546875 9.90625 -50.71875 9.945312 -50.929688 C 10.246094 -52.042969 10.460938 -53.152344 10.585938 -54.347656 C 10.628906 -54.601562 10.628906 -54.902344 10.628906 -55.199219 C 10.628906 -55.5 10.585938 -55.796875 10.542969 -56.140625 C 10.417969 -56.78125 10.074219 -57.292969 9.476562 -57.71875 L 9.433594 -57.71875 C 9.265625 -57.847656 9.007812 -57.890625 8.75 -57.933594 C 8.496094 -57.933594 8.28125 -57.890625 8.027344 -57.804688 C 7.8125 -57.71875 7.597656 -57.589844 7.429688 -57.464844 C 7.257812 -57.292969 7.128906 -57.164062 7 -56.992188 C 6.746094 -56.609375 6.488281 -56.269531 6.320312 -55.925781 C 6.148438 -55.542969 5.933594 -55.15625 5.804688 -54.816406 C 5.550781 -54.515625 4.78125 -51.742188 3.5 -46.578125 C 2.21875 -41.410156 0.898438 -33.425781 -0.511719 -22.582031 C -0.726562 -21.046875 -0.855469 -19.511719 -0.9375 -17.972656 C -1.410156 -9.734375 -1.453125 -3.5 -1.023438 0.769531 C -0.640625 5.039062 -0.339844 7.300781 -0.214844 7.515625 C 0 8.324219 0.382812 9.007812 1.066406 9.5625 C 1.410156 9.863281 1.75 10.03125 2.175781 10.117188 C 2.5625 10.246094 2.988281 10.246094 3.414062 10.203125 C 3.84375 10.117188 4.226562 9.945312 4.566406 9.648438 C 4.910156 9.390625 5.164062 9.09375 5.378906 8.792969 C 6.320312 7.515625 7.128906 6.191406 7.8125 4.78125 C 8.453125 3.371094 9.050781 1.921875 9.476562 0.425781 C 9.945312 -1.023438 10.332031 -2.5625 10.628906 -4.054688 C 10.972656 -5.59375 11.140625 -7.128906 11.140625 -8.710938 C 11.140625 -10.289062 10.84375 -11.824219 10.289062 -13.320312 C 9.691406 -14.769531 8.835938 -16.09375 7.726562 -17.203125 C 7.597656 -17.289062 7.515625 -17.375 7.429688 -17.460938 C 7.214844 -17.632812 7.042969 -17.800781 6.832031 -17.972656 L 5.933594 -18.699219 L 4.953125 -19.339844 L 4.695312 -19.46875 C 4.652344 -19.511719 4.566406 -19.554688 4.523438 -19.554688 C 4.523438 -19.554688 4.484375 -19.59375 4.441406 -19.59375 C 4.398438 -19.59375 4.398438 -19.636719 4.355469 -19.636719 C 4.355469 -19.636719 4.355469 -19.679688 4.3125 -19.679688 C 4.3125 -19.679688 4.3125 -19.679688 4.3125 -19.722656 L 4.484375 -19.808594 C 5.507812 -20.320312 6.574219 -20.789062 7.683594 -21.21875 C 7.855469 -21.261719 8.027344 -21.347656 8.238281 -21.429688 Z M 7.128906 -15.285156 C 7.855469 -14.34375 8.324219 -13.277344 8.667969 -12.082031 C 8.921875 -10.929688 9.007812 -9.734375 8.964844 -8.496094 C 8.921875 -7.300781 8.792969 -6.105469 8.582031 -4.910156 C 8.195312 -2.519531 7.554688 -0.171875 6.660156 2.09375 C 6.234375 3.203125 5.71875 4.3125 5.121094 5.335938 C 4.824219 5.847656 4.484375 6.320312 4.097656 6.789062 C 3.714844 7.257812 3.289062 7.597656 2.816406 7.8125 C 2.773438 7.8125 2.773438 7.8125 2.730469 7.8125 C 2.730469 7.8125 2.691406 7.8125 2.691406 7.8125 C 2.648438 7.769531 2.5625 7.683594 2.519531 7.554688 C 2.390625 7.300781 2.304688 7.042969 2.261719 6.746094 C 2.175781 6.359375 2.132812 5.976562 2.09375 5.550781 C 2.09375 5.378906 2.050781 5.164062 2.007812 4.953125 C 1.878906 3.757812 1.75 2.519531 1.621094 1.28125 C 1.453125 -1.152344 1.367188 -3.585938 1.367188 -6.0625 C 1.324219 -8.539062 1.410156 -10.972656 1.535156 -13.449219 C 1.535156 -13.789062 1.578125 -14.171875 1.621094 -14.515625 C 1.621094 -14.769531 1.664062 -15.027344 1.664062 -15.285156 C 1.707031 -15.453125 1.707031 -15.625 1.707031 -15.753906 C 1.75 -16.222656 1.75 -16.648438 1.835938 -17.078125 C 1.878906 -17.375 1.964844 -17.632812 2.09375 -17.886719 C 2.21875 -18.101562 2.433594 -18.1875 2.730469 -18.1875 C 3.289062 -18.058594 3.84375 -17.886719 4.398438 -17.632812 L 4.398438 -17.589844 C 5.507812 -17.035156 6.402344 -16.265625 7.128906 -15.285156 Z M 9.09375 -54.816406 C 8.667969 -51.316406 7.984375 -48.113281 7.042969 -45.210938 C 6.105469 -42.308594 5.292969 -40.128906 4.695312 -38.679688 C 4.484375 -38.210938 4.355469 -37.824219 4.269531 -37.613281 L 4.867188 -41.28125 C 5.636719 -46.148438 6.445312 -49.609375 7.214844 -51.699219 C 8.027344 -53.75 8.410156 -54.816406 8.410156 -54.816406 C 8.539062 -54.945312 8.625 -55.03125 8.710938 -55.074219 C 8.75 -55.113281 8.835938 -55.15625 8.878906 -55.113281 C 8.921875 -55.113281 8.964844 -55.074219 9.007812 -55.03125 C 9.050781 -54.988281 9.050781 -54.945312 9.09375 -54.902344 C 9.09375 -54.859375 9.09375 -54.816406 9.09375 -54.816406 Z M 9.09375 -54.816406 "/></g></g></g><g fill="#000000" fill-opacity="1"><g transform="translate(181.221821, 293.056185)"><g><path d="M 19.382812 -25.699219 C 19.253906 -25.914062 19.082031 -26 18.828125 -26 C 18.570312 -26 18.144531 -25.957031 17.589844 -25.871094 C 16.777344 -25.699219 15.285156 -25.488281 13.0625 -25.273438 C 13.492188 -27.578125 13.449219 -30.011719 12.894531 -32.53125 C 12.421875 -34.410156 11.398438 -35.859375 9.90625 -36.929688 C 7.554688 -38.421875 4.910156 -38.125 2.007812 -35.945312 C 0.339844 -34.664062 -0.9375 -33.085938 -1.878906 -31.25 C -2.859375 -29.414062 -3.03125 -27.878906 -2.390625 -26.597656 C -1.921875 -25.871094 -1.453125 -25.359375 -1.023438 -25.015625 L -0.898438 -24.933594 C -0.898438 -23.777344 -0.8125 -22.457031 -0.726562 -20.917969 C -0.640625 -19.039062 -0.214844 -17.203125 0.46875 -15.453125 C 1.367188 -13.277344 2.433594 -12.039062 3.757812 -11.78125 C 3.925781 -11.738281 4.140625 -11.738281 4.3125 -11.738281 C 5.421875 -11.738281 6.660156 -12.378906 7.941406 -13.703125 C 9.433594 -15.367188 10.585938 -17.160156 11.398438 -18.996094 C 12.210938 -20.832031 12.722656 -22.328125 12.9375 -23.4375 C 13.492188 -23.523438 14.257812 -23.652344 15.199219 -23.820312 C 16.136719 -24.035156 17.035156 -24.25 17.84375 -24.503906 C 18.699219 -24.761719 19.210938 -25.015625 19.382812 -25.316406 C 19.425781 -25.445312 19.425781 -25.574219 19.382812 -25.699219 Z M 2.5625 -26.640625 C 2.859375 -27.921875 3.160156 -28.816406 3.414062 -29.414062 C 3.671875 -30.011719 3.925781 -30.355469 4.183594 -30.523438 C 4.484375 -30.695312 4.738281 -30.78125 4.996094 -30.78125 C 5.164062 -30.824219 5.335938 -30.867188 5.507812 -30.910156 L 5.71875 -30.953125 L 5.59375 -31.164062 C 5.25 -31.761719 4.609375 -32.105469 3.800781 -32.148438 C 2.648438 -32.148438 1.707031 -31.507812 0.898438 -30.226562 C 0.683594 -29.839844 0.46875 -29.328125 0.257812 -28.730469 C 0.382812 -29.199219 0.554688 -29.671875 0.8125 -30.140625 C 0.980469 -30.695312 1.664062 -31.632812 2.859375 -32.914062 C 3.5 -33.511719 4.140625 -33.984375 4.738281 -34.28125 C 6.746094 -35.304688 8.453125 -35.261719 9.734375 -34.152344 C 10.585938 -33.300781 11.058594 -31.933594 11.140625 -30.011719 C 11.183594 -28.132812 11.058594 -26.511719 10.757812 -25.101562 C 9.605469 -25.015625 8.152344 -25.144531 6.402344 -25.445312 C 4.652344 -25.785156 3.371094 -26.171875 2.5625 -26.640625 Z M 2.261719 -23.523438 C 3.371094 -23.097656 4.695312 -22.839844 6.234375 -22.796875 C 7.769531 -22.710938 9.09375 -22.796875 10.203125 -22.96875 C 9.476562 -19.722656 8.195312 -17.121094 6.320312 -15.15625 C 5.679688 -14.558594 5.121094 -14.300781 4.652344 -14.386719 C 4.183594 -14.472656 3.714844 -14.984375 3.246094 -15.925781 C 2.902344 -16.734375 2.648438 -17.546875 2.476562 -18.398438 C 2.261719 -19.808594 2.175781 -20.917969 2.175781 -21.6875 C 2.132812 -22.457031 2.175781 -23.097656 2.261719 -23.523438 Z M 2.261719 -23.523438 "/></g></g></g><g fill="#000000" fill-opacity="1"><g transform="translate(202.139761, 293.056185)"><g><path d="M 41.367188 -25.742188 C 41.367188 -25.828125 41.324219 -25.871094 41.28125 -25.914062 C 41.15625 -26.042969 40.984375 -26.085938 40.769531 -26.128906 C 40.640625 -26.128906 40.386719 -26.085938 40.003906 -26 C 39.617188 -25.871094 39.148438 -25.574219 38.550781 -25.101562 L 37.695312 -24.335938 L 36.800781 -23.609375 C 35.605469 -22.710938 34.367188 -21.859375 33.042969 -21.003906 C 31.804688 -20.234375 30.4375 -19.511719 29.03125 -18.871094 C 27.664062 -18.230469 26.253906 -17.71875 24.761719 -17.332031 C 21.945312 -16.605469 18.957031 -16.648438 15.882812 -17.503906 C 13.191406 -18.273438 10.585938 -19.59375 8.070312 -21.515625 L 7.898438 -21.644531 C 6.191406 -23.097656 4.566406 -24.675781 3.074219 -26.382812 C 9.347656 -30.140625 14.6875 -34.75 18.996094 -40.214844 C 23.480469 -45.808594 27.023438 -52.082031 29.671875 -59.042969 C 32.230469 -65.746094 33.941406 -72.789062 34.707031 -80.089844 C 35.09375 -83.933594 35.261719 -87.5625 35.09375 -90.933594 C 34.964844 -94.859375 34.496094 -98.234375 33.683594 -101.136719 L 33.8125 -101.179688 L 33.640625 -101.734375 C 32.746094 -104.636719 31.507812 -107.027344 29.882812 -108.90625 C 28.902344 -110.015625 27.835938 -110.871094 26.683594 -111.511719 C 26.042969 -111.851562 25.402344 -112.152344 24.761719 -112.363281 C 24.164062 -112.535156 23.480469 -112.707031 22.753906 -112.792969 C 22.027344 -112.875 21.347656 -112.917969 20.664062 -112.917969 C 20.066406 -112.875 19.382812 -112.835938 18.613281 -112.707031 C 17.332031 -112.492188 16.007812 -112.109375 14.6875 -111.597656 C 12.210938 -110.570312 9.90625 -109.207031 7.726562 -107.496094 C 5.761719 -105.875 3.886719 -103.996094 2.09375 -101.734375 C 0.46875 -99.640625 -1.066406 -97.464844 -2.433594 -95.160156 C -5.082031 -90.761719 -7.171875 -85.851562 -8.710938 -80.429688 C -9.476562 -77.914062 -10.074219 -75.308594 -10.542969 -72.660156 C -11.058594 -69.714844 -11.441406 -67.113281 -11.613281 -64.71875 C -12.125 -59.085938 -11.953125 -53.75 -11.101562 -48.796875 L -11.015625 -48.285156 L -10.714844 -46.789062 C -10.671875 -46.621094 -10.628906 -46.449219 -10.585938 -46.234375 C -10.585938 -46.191406 -10.542969 -46.148438 -10.542969 -46.105469 C -10.460938 -45.679688 -10.375 -45.296875 -10.246094 -44.828125 L -9.605469 -42.5625 C -9.476562 -42.050781 -9.265625 -41.539062 -9.09375 -41.027344 C -8.964844 -40.726562 -8.878906 -40.472656 -8.792969 -40.171875 C -8.75 -40.171875 -8.75 -40.128906 -8.75 -40.128906 C -8.410156 -39.148438 -8.027344 -38.210938 -7.597656 -37.3125 L -6.746094 -35.476562 L -5.761719 -33.726562 C -3.246094 -29.242188 0.0429688 -25.144531 4.097656 -21.429688 L 6.105469 -19.765625 C 9.050781 -17.675781 11.953125 -16.265625 14.855469 -15.539062 C 16.605469 -15.113281 18.398438 -14.898438 20.152344 -14.898438 C 21.6875 -14.898438 23.222656 -15.027344 24.71875 -15.367188 C 27.664062 -16.007812 30.695312 -17.289062 33.769531 -19.167969 C 35.261719 -20.109375 36.628906 -21.046875 37.78125 -22.027344 C 38.421875 -22.542969 38.933594 -22.96875 39.363281 -23.351562 C 39.789062 -23.738281 40.128906 -24.078125 40.386719 -24.335938 C 40.640625 -24.589844 40.855469 -24.804688 40.984375 -24.976562 C 41.15625 -25.144531 41.238281 -25.316406 41.28125 -25.402344 C 41.367188 -25.53125 41.367188 -25.574219 41.367188 -25.65625 C 41.367188 -25.699219 41.367188 -25.742188 41.367188 -25.742188 Z M 30.910156 -101.050781 C 31.71875 -98.191406 32.230469 -94.777344 32.402344 -90.71875 C 32.574219 -87.476562 32.445312 -83.972656 32.0625 -80.21875 C 31.335938 -73.171875 29.714844 -66.386719 27.28125 -59.8125 C 24.71875 -53.066406 21.304688 -47.003906 17.035156 -41.625 C 12.808594 -36.289062 7.683594 -31.804688 1.664062 -28.175781 C 0.726562 -29.328125 -0.0429688 -30.394531 -0.683594 -31.335938 C -1.410156 -32.402344 -2.175781 -33.683594 -2.988281 -35.136719 C -3.757812 -36.542969 -4.355469 -37.910156 -4.867188 -39.148438 C -5.082031 -39.617188 -5.25 -40.128906 -5.421875 -40.601562 C -5.507812 -40.8125 -5.550781 -41.027344 -5.636719 -41.238281 C -5.71875 -41.453125 -5.761719 -41.667969 -5.847656 -41.878906 C -6.019531 -42.351562 -6.148438 -42.863281 -6.320312 -43.332031 C -7.085938 -46.0625 -7.640625 -48.96875 -7.898438 -52.042969 C -7.984375 -53.238281 -8.070312 -54.390625 -8.152344 -55.542969 C -8.152344 -55.839844 -8.152344 -56.183594 -8.195312 -56.480469 L -8.195312 -57.292969 C -8.238281 -58.488281 -8.238281 -59.726562 -8.195312 -60.964844 C -8.113281 -64.121094 -7.855469 -67.113281 -7.429688 -69.84375 C -7.300781 -70.484375 -7.214844 -71.167969 -7.042969 -71.808594 L -6.917969 -72.53125 C -6.832031 -73.089844 -6.703125 -73.644531 -6.574219 -74.199219 C -6.488281 -74.410156 -6.445312 -74.667969 -6.402344 -74.925781 C -6.359375 -74.964844 -6.359375 -75.007812 -6.359375 -75.007812 C -6.277344 -75.480469 -6.148438 -75.90625 -6.019531 -76.332031 L -5.421875 -78.511719 C -4.523438 -81.542969 -3.5 -84.359375 -2.433594 -86.878906 C -2.304688 -87.089844 -2.21875 -87.347656 -2.09375 -87.601562 C -2.09375 -87.644531 -2.09375 -87.644531 -2.050781 -87.6875 C -1.578125 -88.757812 -1.066406 -89.867188 -0.511719 -90.933594 C -0.0429688 -91.914062 0.511719 -92.941406 1.023438 -93.921875 C 1.023438 -93.921875 1.066406 -93.921875 1.066406 -93.921875 C 1.195312 -94.179688 1.324219 -94.433594 1.453125 -94.691406 L 1.496094 -94.648438 L 1.578125 -94.816406 C 3.289062 -97.722656 5.378906 -100.410156 7.855469 -102.886719 C 9.222656 -104.253906 10.503906 -105.40625 11.699219 -106.257812 C 13.105469 -107.328125 14.558594 -108.179688 16.050781 -108.820312 C 17.800781 -109.589844 19.425781 -110.058594 20.875 -110.230469 C 21.003906 -110.230469 21.132812 -110.230469 21.261719 -110.230469 C 21.347656 -110.230469 21.429688 -110.230469 21.472656 -110.273438 C 21.558594 -110.273438 21.644531 -110.273438 21.730469 -110.273438 C 21.859375 -110.273438 21.984375 -110.273438 22.113281 -110.273438 C 22.199219 -110.273438 22.328125 -110.273438 22.414062 -110.273438 C 22.710938 -110.230469 23.054688 -110.230469 23.351562 -110.144531 C 24.078125 -110.058594 24.847656 -109.804688 25.613281 -109.375 L 26.171875 -109.078125 C 26.253906 -108.992188 26.382812 -108.949219 26.46875 -108.863281 C 26.554688 -108.820312 26.597656 -108.734375 26.683594 -108.691406 C 26.894531 -108.566406 27.109375 -108.351562 27.28125 -108.136719 C 27.28125 -108.136719 27.28125 -108.136719 27.324219 -108.136719 C 27.40625 -108.050781 27.492188 -107.96875 27.578125 -107.882812 C 27.664062 -107.796875 27.75 -107.710938 27.835938 -107.582031 C 27.878906 -107.539062 27.921875 -107.453125 27.964844 -107.414062 C 28.003906 -107.371094 28.046875 -107.285156 28.089844 -107.242188 C 28.21875 -107.15625 28.261719 -107.070312 28.347656 -106.941406 C 28.433594 -106.816406 28.519531 -106.6875 28.601562 -106.601562 C 28.730469 -106.34375 28.902344 -106.132812 29.03125 -105.875 L 29.117188 -105.703125 C 29.285156 -105.40625 29.457031 -105.105469 29.585938 -104.765625 L 29.671875 -104.550781 C 29.839844 -104.253906 29.96875 -103.953125 30.097656 -103.613281 C 30.3125 -102.972656 30.566406 -102.289062 30.78125 -101.476562 Z M 30.910156 -101.050781 "/></g></g></g><g fill="#000000" fill-opacity="1"><g transform="translate(242.652268, 293.056185)"><g><path d="M 4.652344 -15.964844 C 4.269531 -15.882812 3.886719 -15.839844 3.5 -15.882812 C 3.117188 -15.925781 2.773438 -16.007812 2.519531 -16.179688 C 2.21875 -16.394531 2.050781 -16.648438 1.921875 -16.992188 C 1.792969 -17.289062 1.707031 -17.632812 1.664062 -17.972656 C 1.621094 -18.230469 1.621094 -18.484375 1.578125 -18.742188 C 1.578125 -18.871094 1.578125 -18.957031 1.535156 -19.039062 C 1.496094 -19.382812 1.496094 -19.722656 1.453125 -20.109375 C 1.453125 -20.449219 1.453125 -20.789062 1.496094 -21.132812 L 1.578125 -22.242188 L 1.75 -24.375 C 1.835938 -25.101562 1.878906 -25.828125 1.921875 -26.554688 C 1.921875 -26.597656 1.921875 -26.640625 1.921875 -26.683594 C 1.964844 -27.367188 1.921875 -28.046875 1.707031 -28.773438 C 1.621094 -29.160156 1.367188 -29.5 0.980469 -29.757812 C 0.554688 -30.011719 0.0859375 -30.097656 -0.382812 -30.054688 C -1.324219 -29.925781 -2.132812 -29.628906 -2.859375 -29.242188 L -2.902344 -29.199219 L -2.945312 -29.160156 C -3.328125 -28.816406 -3.542969 -28.433594 -3.585938 -27.921875 C -3.585938 -27.707031 -3.542969 -27.492188 -3.457031 -27.28125 C -3.457031 -27.238281 -3.457031 -27.238281 -3.414062 -27.238281 C -3.414062 -27.195312 -3.371094 -27.152344 -3.371094 -27.109375 L -3.328125 -27.023438 C -3.289062 -26.980469 -3.246094 -26.980469 -3.246094 -26.9375 C -3.074219 -26.808594 -2.902344 -26.769531 -2.730469 -26.769531 C -2.5625 -26.726562 -2.390625 -26.769531 -2.261719 -26.808594 L -1.964844 -26.9375 C -1.75 -27.023438 -1.578125 -27.066406 -1.453125 -27.066406 C -1.410156 -27.066406 -1.324219 -27.066406 -1.324219 -27.066406 C -1.28125 -27.023438 -1.238281 -26.980469 -1.195312 -26.9375 C -1.152344 -26.808594 -1.109375 -26.683594 -1.066406 -26.511719 C -1.023438 -25.914062 -1.023438 -25.359375 -1.066406 -24.71875 C -1.109375 -24.589844 -1.109375 -24.417969 -1.109375 -24.25 L -1.238281 -21.984375 C -1.324219 -21.21875 -1.324219 -20.449219 -1.367188 -19.679688 C -1.367188 -18.914062 -1.28125 -18.144531 -1.109375 -17.375 C -0.9375 -16.605469 -0.597656 -15.882812 -0.171875 -15.199219 C 0.300781 -14.472656 0.9375 -13.960938 1.835938 -13.660156 C 2.730469 -13.40625 3.671875 -13.320312 4.566406 -13.492188 C 5.039062 -13.574219 5.464844 -13.660156 5.890625 -13.789062 C 6.359375 -13.960938 6.746094 -14.132812 7.171875 -14.34375 C 9.90625 -15.539062 12.464844 -17.460938 14.769531 -20.191406 C 17.078125 -22.882812 18.484375 -24.804688 19.082031 -25.957031 C 19.082031 -25.957031 19.082031 -25.957031 19.082031 -26 C 19.082031 -26.042969 19.082031 -26.128906 19.082031 -26.171875 C 19.082031 -26.253906 19.039062 -26.296875 19.039062 -26.382812 C 18.996094 -26.425781 18.828125 -26.511719 18.484375 -26.597656 C 17.460938 -25.015625 15.496094 -22.925781 12.636719 -20.320312 C 9.734375 -17.675781 7.085938 -16.222656 4.652344 -15.964844 Z M 1.707031 -36.414062 C 1.578125 -36.5 1.453125 -36.585938 1.324219 -36.628906 C 1.195312 -36.671875 1.109375 -36.714844 0.980469 -36.757812 C 0.9375 -36.757812 0.9375 -36.757812 0.898438 -36.757812 C 0.300781 -36.929688 -0.257812 -37.015625 -0.855469 -36.972656 C -1.453125 -36.972656 -2.007812 -36.84375 -2.519531 -36.585938 C -2.816406 -36.457031 -3.03125 -36.289062 -3.246094 -36.074219 C -3.457031 -35.816406 -3.542969 -35.5625 -3.542969 -35.21875 C -3.457031 -34.878906 -3.289062 -34.621094 -2.988281 -34.410156 C -2.730469 -34.238281 -2.433594 -34.109375 -2.175781 -34.023438 C -1.578125 -33.898438 -0.980469 -33.855469 -0.382812 -33.898438 C 0.171875 -33.984375 0.726562 -34.109375 1.238281 -34.410156 C 1.453125 -34.539062 1.664062 -34.707031 1.878906 -34.921875 C 2.050781 -35.136719 2.132812 -35.390625 2.09375 -35.648438 L 2.050781 -35.648438 C 2.050781 -35.945312 1.921875 -36.203125 1.707031 -36.414062 Z M 1.707031 -36.414062 "/></g></g></g><g fill="#000000" fill-opacity="1"><g transform="translate(260.710007, 293.056185)"><g><path d="M 19.382812 -25.699219 C 19.253906 -25.914062 19.082031 -26 18.828125 -26 C 18.570312 -26 18.144531 -25.957031 17.589844 -25.871094 C 16.777344 -25.699219 15.285156 -25.488281 13.0625 -25.273438 C 13.492188 -27.578125 13.449219 -30.011719 12.894531 -32.53125 C 12.421875 -34.410156 11.398438 -35.859375 9.90625 -36.929688 C 7.554688 -38.421875 4.910156 -38.125 2.007812 -35.945312 C 0.339844 -34.664062 -0.9375 -33.085938 -1.878906 -31.25 C -2.859375 -29.414062 -3.03125 -27.878906 -2.390625 -26.597656 C -1.921875 -25.871094 -1.453125 -25.359375 -1.023438 -25.015625 L -0.898438 -24.933594 C -0.898438 -23.777344 -0.8125 -22.457031 -0.726562 -20.917969 C -0.640625 -19.039062 -0.214844 -17.203125 0.46875 -15.453125 C 1.367188 -13.277344 2.433594 -12.039062 3.757812 -11.78125 C 3.925781 -11.738281 4.140625 -11.738281 4.3125 -11.738281 C 5.421875 -11.738281 6.660156 -12.378906 7.941406 -13.703125 C 9.433594 -15.367188 10.585938 -17.160156 11.398438 -18.996094 C 12.210938 -20.832031 12.722656 -22.328125 12.9375 -23.4375 C 13.492188 -23.523438 14.257812 -23.652344 15.199219 -23.820312 C 16.136719 -24.035156 17.035156 -24.25 17.84375 -24.503906 C 18.699219 -24.761719 19.210938 -25.015625 19.382812 -25.316406 C 19.425781 -25.445312 19.425781 -25.574219 19.382812 -25.699219 Z M 2.5625 -26.640625 C 2.859375 -27.921875 3.160156 -28.816406 3.414062 -29.414062 C 3.671875 -30.011719 3.925781 -30.355469 4.183594 -30.523438 C 4.484375 -30.695312 4.738281 -30.78125 4.996094 -30.78125 C 5.164062 -30.824219 5.335938 -30.867188 5.507812 -30.910156 L 5.71875 -30.953125 L 5.59375 -31.164062 C 5.25 -31.761719 4.609375 -32.105469 3.800781 -32.148438 C 2.648438 -32.148438 1.707031 -31.507812 0.898438 -30.226562 C 0.683594 -29.839844 0.46875 -29.328125 0.257812 -28.730469 C 0.382812 -29.199219 0.554688 -29.671875 0.8125 -30.140625 C 0.980469 -30.695312 1.664062 -31.632812 2.859375 -32.914062 C 3.5 -33.511719 4.140625 -33.984375 4.738281 -34.28125 C 6.746094 -35.304688 8.453125 -35.261719 9.734375 -34.152344 C 10.585938 -33.300781 11.058594 -31.933594 11.140625 -30.011719 C 11.183594 -28.132812 11.058594 -26.511719 10.757812 -25.101562 C 9.605469 -25.015625 8.152344 -25.144531 6.402344 -25.445312 C 4.652344 -25.785156 3.371094 -26.171875 2.5625 -26.640625 Z M 2.261719 -23.523438 C 3.371094 -23.097656 4.695312 -22.839844 6.234375 -22.796875 C 7.769531 -22.710938 9.09375 -22.796875 10.203125 -22.96875 C 9.476562 -19.722656 8.195312 -17.121094 6.320312 -15.15625 C 5.679688 -14.558594 5.121094 -14.300781 4.652344 -14.386719 C 4.183594 -14.472656 3.714844 -14.984375 3.246094 -15.925781 C 2.902344 -16.734375 2.648438 -17.546875 2.476562 -18.398438 C 2.261719 -19.808594 2.175781 -20.917969 2.175781 -21.6875 C 2.132812 -22.457031 2.175781 -23.097656 2.261719 -23.523438 Z M 2.261719 -23.523438 "/></g></g></g></svg>